<?xml version="1.0" encoding="utf-8"?>
<!-- Generator: Adobe Illustrator 24.3.0, SVG Export Plug-In . SVG Version: 6.00 Build 0)  -->
<svg version="1.1" id="Capa_1" xmlns="http://www.w3.org/2000/svg" xmlns:xlink="http://www.w3.org/1999/xlink" x="0px" y="0px"
	 viewBox="0 0 512 512" style="enable-background:new 0 0 512 512;" xml:space="preserve">
<style type="text/css">
	.st0{fill:#FFFFFF;}
</style>
<circle cx="256" cy="256" r="256"/>
<g>
	<path class="st0" d="M212.2,410.8c-46.4-0.3-84.8-95-84.8-143.2c0-78.8,59.1-96,81.9-96c10.3,0,21.2,4,30.9,7.6
		c6.8,2.5,13.8,5.1,17.6,5.1c2.3,0,7.8-2.2,12.7-4.1c10.3-4.1,23.2-9.2,38.1-9.2c0,0,0.1,0,0.1,0c11.2,0,45.1,2.5,65.4,33l4.8,7.2
		l-6.9,5.2c-9.8,7.4-27.7,20.9-27.7,47.7c0,31.7,20.3,43.9,30,49.7c4.3,2.6,8.7,5.3,8.7,11.1c0,3.8-30.4,85.6-74.5,85.6
		c-10.8,0-18.4-3.2-25.2-6.1c-6.8-2.9-12.7-5.4-22.4-5.4c-4.9,0-11.1,2.3-17.7,4.8c-9,3.4-19.2,7.2-30.8,7.2H212.2z"/>
	<path class="st0" d="M313.4,99.1c1.1,41.4-28.5,70.2-58.1,68.4C250.4,134.4,284.9,99.1,313.4,99.1z"/>
</g>
</svg>
