<?xml version="1.0" encoding="utf-8"?>
<!-- Generator: Adobe Illustrator 24.3.0, SVG Export Plug-In . SVG Version: 6.00 Build 0)  -->
<svg version="1.1" id="Capa_1" xmlns="http://www.w3.org/2000/svg" xmlns:xlink="http://www.w3.org/1999/xlink" x="0px" y="0px"
	 viewBox="0 0 512 512" style="enable-background:new 0 0 512 512;" xml:space="preserve">
<style type="text/css">
	.st0{fill:#FA8231;}
</style>
<g>
	<path d="M256.2,212.2c24.4-0.1,43.9-19.7,43.8-44.2c-0.1-24.5-19.6-44-44.1-44c-24.7,0-44.4,19.8-44.2,44.6
		C212,192.9,231.7,212.3,256.2,212.2z"/>
	<path class="st0" d="M256,0C114.6,0,0,114.6,0,256s114.6,256,256,256s256-114.6,256-256S397.4,0,256,0z M256.4,77.9
		c49.9,0.1,89.9,40.9,89.6,91.3c-0.3,49.3-40.9,89.2-90.7,89c-49.3-0.2-89.7-41-89.4-90.4C166.2,117.9,206.6,77.7,256.4,77.9z
		 M357.4,293.6c-11,11.3-24.3,19.5-39,25.2c-13.9,5.4-29.2,8.1-44.3,9.9c2.3,2.5,3.4,3.7,4.8,5.1c20.5,20.6,41.1,41.1,61.6,61.8
		c7,7.1,8.4,15.8,4.6,24c-4.2,9-13.6,14.8-22.8,14.2c-5.8-0.4-10.4-3.3-14.4-7.4c-15.5-15.6-31.3-30.9-46.4-46.7
		c-4.4-4.6-6.5-3.7-10.4,0.3c-15.6,16-31.4,31.8-47.3,47.5c-7.1,7.1-15.7,8.3-24,4.3c-8.8-4.3-14.4-13.3-14-22.3
		c0.3-6.1,3.3-10.8,7.5-15c20.3-20.3,40.6-40.6,60.8-60.9c1.3-1.3,2.6-2.8,4.5-4.9c-27.6-2.9-52.5-9.7-73.8-26.4
		c-2.7-2.1-5.4-4.1-7.8-6.4c-9.3-9-10.3-19.2-2.9-29.8c6.3-9.1,16.9-11.5,27.9-6.3c2.1,1,4.2,2.3,6.1,3.6
		c39.7,27.3,94.3,28.1,134.2,1.2c3.9-3,8.2-5.5,13.1-6.8c9.5-2.5,18.4,1.1,23.5,9.4C364.6,276.9,364.6,286.2,357.4,293.6z"/>
</g>
<circle class="st0" cx="255.9" cy="167.9" r="45.6"/>
</svg>
