<svg height="512pt" viewBox="0 -12 512 511" width="512pt" xmlns="http://www.w3.org/2000/svg"><path d="m497 291.371094h-371.089844c-8.28125 0-15 6.714844-15 15 0 8.28125 6.71875 15 15 15h4.097656v70.820312c0 41.027344 33.375 74.40625 74.402344 74.40625h5.511719v5.5c0 8.285156 6.714844 15 15 15s15-6.714844 15-15v-5.5h143.066406v5.5c0 8.285156 6.71875 15 15 15 8.285157 0 15-6.714844 15-15v-5.5h5.511719c41.027344 0 74.40625-33.378906 74.40625-74.40625v-70.820312h4.09375c8.285156 0 15-6.71875 15-15 0-8.285156-6.714844-15-15-15zm-34.09375 100.820312c0 24.484375-19.921875 44.40625-44.40625 44.40625h-214.089844c-24.484375 0-44.402344-19.917968-44.402344-44.40625v-70.820312h302.898438zm0 0"/><path d="m128.765625 30.503906c36.902344 0 69.046875 26.1875 76.429687 62.273438.089844.441406.207032.871094.332032 1.296875l-2.769532.984375c-7.808593 2.78125-11.878906 11.359375-9.101562 19.164062 2.1875 6.140625 7.960938 9.972656 14.128906 9.972656 1.671875 0 3.367188-.28125 5.03125-.875l37.417969-13.320312c7.804687-2.777344 11.878906-11.355469 9.101563-19.160156-2.777344-7.808594-11.359376-11.878906-19.160157-9.101563l-6.230469 2.214844c-11.292968-48.523437-55.054687-83.453125-105.179687-83.453125-59.5625 0-108.015625 48.457031-108.015625 108.015625v118.175781h-5.75c-8.285156 0-15 6.714844-15 15s6.714844 15 15 15h5.75v200.402344h-5.75c-8.285156 0-15 6.714844-15 15s6.714844 15 15 15h41.5c8.285156 0 15-6.714844 15-15s-6.714844-15-15-15h-5.75v-200.402344h5.75c8.285156 0 15-6.714844 15-15 0-8.28125-6.714844-15-15-15h-5.75v-118.175781c0-43.015625 34.996094-78.011719 78.015625-78.011719zm0 0"/><path d="m373.199219 149.261719v74.851562c0 8.285157 6.71875 15 15 15h76.707031c8.285156 0 15-6.714843 15-15v-74.851562c7.335938-.980469 13-7.246094 13-14.851563 0-8.285156-6.714844-15-15-15h-102.703125c-8.285156 0-15 6.714844-15 15 0 7.601563 5.664063 13.871094 12.996094 14.851563zm30 59.851562v-59.703125h46.707031v59.703125zm0 0"/></svg>