<svg height="512pt" viewBox="0 -25 512 512" width="512pt" xmlns="http://www.w3.org/2000/svg"><path d="m273.613281 30h45.007813v46.324219c-46.554688 7.230469-82.296875 47.585937-82.296875 96.132812v12.753907c0 8.285156 6.714843 15 15 15h164.59375c8.285156 0 15-6.714844 15-15v-12.753907c0-48.542969-35.738281-88.894531-82.296875-96.132812v-61.324219c0-8.285156-6.714844-15-15-15h-60.007813c-62.875 0-121.984375 24.484375-166.445312 68.945312-44.457031 44.457032-68.941407 103.570313-68.941407 166.445313v196.644531h-23.226562c-8.285156 0-15 6.71875-15 15 0 8.285156 6.714844 15 15 15h76.449219c8.285156 0 15-6.714844 15-15 0-8.28125-6.714844-15-15-15h-23.222657v-196.644531c0-113.253906 92.136719-205.390625 205.386719-205.390625zm127.269531 140.210938h-134.523437c1.191406-36.066407 30.902344-65.042969 67.269531-65.042969 36.351563 0 66.0625 28.976562 67.253906 65.042969zm0 0"/><path d="m497 339.410156h-10v-4.382812c0-38.347656-31.199219-69.546875-69.546875-69.546875h-161.332031c-38.347656 0-69.546875 31.199219-69.546875 69.546875v4.382812h-10c-8.285157 0-15 6.71875-15 15v92.628906c0 8.28125 6.714843 15 15 15h320.425781c8.285156 0 15-6.71875 15-15v-92.628906c0-8.28125-6.714844-15-15-15zm-45.652344 92.628906v-62.628906h30.652344v62.628906zm-199.121094 0v-32.542968h169.121094v32.542968zm-60.652343 0v-62.628906h30.652343v62.628906zm64.546875-136.558593h161.332031c21.808594 0 39.546875 17.742187 39.546875 39.546875v4.382812h-20.652344c-8.285156 0-15 6.71875-15 15v15.085938h-169.121094v-15.085938c0-8.28125-6.714843-15-15-15h-20.652343v-4.382812c0-21.804688 17.742187-39.546875 39.546875-39.546875zm0 0"/></svg>