<?xml version="1.0" encoding="iso-8859-1"?>
<!-- Generator: Adobe Illustrator 19.0.0, SVG Export Plug-In . SVG Version: 6.00 Build 0)  -->
<svg version="1.1" id="Capa_1" xmlns="http://www.w3.org/2000/svg" xmlns:xlink="http://www.w3.org/1999/xlink" x="0px" y="0px"
	 viewBox="0 0 512 512" style="enable-background:new 0 0 512 512;" xml:space="preserve">
<g>
	<g>
		<path d="M490.667,0H256c-11.782,0-21.333,9.551-21.333,21.333V64H85.333C73.551,64,64,73.551,64,85.333v149.333H21.333
			C9.551,234.667,0,244.218,0,256v234.667C0,502.449,9.551,512,21.333,512h469.333c11.782,0,21.333-9.551,21.333-21.333V21.333
			C512,9.551,502.449,0,490.667,0z M106.667,106.667h42.667v42.667h-42.667V106.667z M106.667,192h42.667v42.667h-42.667V192z
			 M234.667,469.333h-192v-192h192V469.333z M234.667,234.667H192V192h42.667V234.667z M234.667,149.333H192v-42.667h42.667V149.333
			z M469.333,469.333h-192v-192h192V469.333z M469.333,234.667h-192v-192h192V234.667z"/>
	</g>
</g>
<g>
</g>
<g>
</g>
<g>
</g>
<g>
</g>
<g>
</g>
<g>
</g>
<g>
</g>
<g>
</g>
<g>
</g>
<g>
</g>
<g>
</g>
<g>
</g>
<g>
</g>
<g>
</g>
<g>
</g>
</svg>
