<svg height="512pt" viewBox="-123 0 512 512.001" width="512pt" xmlns="http://www.w3.org/2000/svg"><path d="m244.449219 291.429688-16.191407-239.773438c-1.957031-28.964844-26.230468-51.65625-55.261718-51.65625h-80.878906c-29.035157 0-53.308594 22.691406-55.265626 51.65625l-16.191406 239.773438c-12.417968 8.019531-20.660156 21.96875-20.660156 37.820312v28.097656c0 22.210938 16.179688 40.703125 37.371094 44.339844l-8.367188 93.984375c-.734375 8.25 5.359375 15.535156 13.613282 16.269531.453124.039063.898437.058594 1.347656.058594 7.683594 0 14.226562-5.871094 14.921875-13.671875l2.792969-31.363281h141.753906l2.789062 31.363281c.695313 7.800781 7.242188 13.671875 14.925782 13.671875.445312 0 .894531-.019531 1.347656-.058594 8.25-.734375 14.34375-8.019531 13.609375-16.269531l-8.363281-93.984375c21.1875-3.636719 37.367187-22.128906 37.367187-44.339844v-28.097656c0-15.851562-8.242187-29.800781-20.660156-37.820312zm-9.339844 37.820312v28.097656c0 8.269532-6.726563 15-15 15h-175.109375c-8.269531 0-15-6.730468-15-15v-28.097656c0-8.273438 6.730469-15 15-15h175.109375c8.273437 0 15 6.726562 15 15zm-167.679687 73.097656h130.25l3.082031 34.617188h-136.414063zm24.6875-372.347656h80.878906c13.308594 0 24.433594 10.398438 25.332031 23.675781l15.570313 230.574219h-162.683594l15.570312-230.574219c.898438-13.277343 12.023438-23.675781 25.332032-23.675781zm0 0"/></svg>