<svg xmlns="http://www.w3.org/2000/svg" width="20px" height="20px"  viewBox="0 0 285.19 273.62"><g id="Layer_2" data-name="Layer 2"><g id="Layer_1-2" data-name="Layer 1"><path d="M235.19,0H50A50.06,50.06,0,0,0,0,50V164.22a50.06,50.06,0,0,0,50,50H168l56.47,56.46a10,10,0,0,0,7.07,2.93,9.89,9.89,0,0,0,3.83-.77,10,10,0,0,0,6.17-9.23V213.83a50.08,50.08,0,0,0,43.7-49.61V50a50.06,50.06,0,0,0-50-50Zm30,164.23a30,30,0,0,1-30,30h-3.7a10,10,0,0,0-10,10v35.25l-42.32-42.33a10,10,0,0,0-7.07-2.92H50a30,30,0,0,1-30-30V50A30,30,0,0,1,50,20H235.19a30,30,0,0,1,30,30Z"/><path d="M216.2,70.81H69a10,10,0,1,0,0,20H216.2a10,10,0,0,0,0-20Z"/><path d="M216.2,126.81H69a10,10,0,1,0,0,20H216.2a10,10,0,0,0,0-20Z"/></g></g></svg>