<?xml version="1.0" encoding="iso-8859-1"?>
<!-- Generator: Adobe Illustrator 18.1.1, SVG Export Plug-In . SVG Version: 6.00 Build 0)  -->
<svg version="1.1" id="Capa_1" xmlns="http://www.w3.org/2000/svg" xmlns:xlink="http://www.w3.org/1999/xlink" x="0px" y="0px"
	 viewBox="0 0 612 612" style="enable-background:new 0 0 612 612;" xml:space="preserve">
<g>
	<path d="M612,241.466v-25.281h-34.895v-83.827l-77.348-64.012l-77.348,64.012v83.827h-39.428v-83.827l-77.348-64.012
		l-77.348,64.012v83.827h-39.426v-83.827L111.51,68.345l-77.35,64.012v83.827H0v25.281h34.16v13.775H0v25.281h34.16v99.265H0v25.281
		h34.16v13.773H0v25.281h34.16v99.532h154.698v-99.532h39.426v99.532h154.696v-99.532h39.428v99.532h154.696v-99.532H612v-25.281
		h-34.895v-13.773H612v-25.281h-34.895v-99.265H612v-25.281h-34.895v-13.775H612z M422.409,241.466v13.775h-39.428v-13.775H422.409z
		 M422.409,280.522v99.265h-39.428v-99.265H422.409z M228.284,241.466v13.775h-39.426v-13.775H228.284z M228.284,280.522v99.265
		h-39.426v-99.265H228.284z M163.577,518.374H59.442V144.25l52.069-43.09l52.067,43.09V518.374z M188.858,418.839v-13.773h39.426
		v13.773H188.858z M357.699,518.374H253.566V144.25l52.067-43.09l52.067,43.09L357.699,518.374L357.699,518.374z M382.981,418.839
		v-13.773h39.428v13.773H382.981z M551.823,518.374H447.69V144.25l52.067-43.09l52.067,43.09V518.374z"/>
</g>
<g>
</g>
<g>
</g>
<g>
</g>
<g>
</g>
<g>
</g>
<g>
</g>
<g>
</g>
<g>
</g>
<g>
</g>
<g>
</g>
<g>
</g>
<g>
</g>
<g>
</g>
<g>
</g>
<g>
</g>
</svg>
