<svg height="512pt" viewBox="0 -20 512 512" width="512pt" xmlns="http://www.w3.org/2000/svg"><path d="m15 55.308594h33.207031v13.542968c-14.761719 5.957032-25.207031 20.421876-25.207031 37.292969v25.203125c0 8.285156 6.714844 15 15 15h50.410156c8.285156 0 15-6.714844 15-15v-25.203125c0-16.871093-10.445312-31.335937-25.203125-37.292969v-13.542968h137.351563v6.316406c-37.539063 3.40625-67.054688 35.039062-67.054688 73.449219v12.546875c0 8.285156 6.714844 15 15 15h184.992188c8.285156 0 15-6.714844 15-15v-12.546875c0-38.410157-29.515625-70.042969-67.054688-73.449219v-6.316406h137.351563v13.542968c-14.757813 5.957032-25.203125 20.421876-25.203125 37.292969v25.203125c0 8.285156 6.714844 15 15 15h50.410156c8.285156 0 15-6.714844 15-15v-25.203125c0-16.871093-10.445312-31.335937-25.207031-37.292969v-13.542968h33.207031c8.285156 0 15-6.714844 15-15s-6.714844-15-15-15h-36.246094c-2.742187-3.621094-7.070312-5.972656-11.960937-5.972656-4.886719 0-9.21875 2.351562-11.957031 5.972656h-140.394532v-10.308594c0-8.285156-6.714844-15-15-15h-50.882812c-8.285156 0-15 6.714844-15 15v10.308594h-140.394532c-2.738281-3.621094-7.066406-5.972656-11.957031-5.972656s-9.21875 2.351562-11.957031 5.972656h-36.25c-8.285156 0-15 6.714844-15 15s6.714844 15 15 15zm444 61.039062h-20.410156v-10.203125c0-5.628906 4.574218-10.207031 10.203125-10.207031 5.628906 0 10.207031 4.578125 10.207031 10.207031zm-192.558594-86.347656v27.578125h-20.882812v-27.578125zm-87.871094 102.621094c1.277344-22.996094 20.390626-41.3125 43.699219-41.3125h67.457031c23.3125 0 42.425782 18.316406 43.703126 41.3125zm-105.160156-16.273438h-20.410156v-10.203125c0-5.628906 4.578125-10.207031 10.207031-10.207031 5.628907 0 10.203125 4.578125 10.203125 10.207031zm0 0"/><path d="m307.292969 330.066406h-102.585938c-8.285156 0-15 6.714844-15 15v68.835938c0 8.28125 6.714844 15 15 15h102.585938c8.285156 0 15-6.71875 15-15v-68.835938c0-8.285156-6.714844-15-15-15zm-15 68.835938h-72.585938v-38.835938h72.585938zm0 0"/><path d="m96.996094 344.539062h-11.90625c-8.285156 0-15 6.71875-15 15 0 8.285157 6.714844 15 15 15h11.90625c8.285156 0 15-6.714843 15-15 0-8.28125-6.714844-15-15-15zm0 0"/><path d="m426.910156 344.539062h-11.90625c-8.285156 0-15 6.71875-15 15 0 8.285157 6.714844 15 15 15h11.90625c8.285156 0 15-6.714843 15-15 0-8.28125-6.714844-15-15-15zm0 0"/><path d="m497 280.550781h-482c-8.285156 0-15 6.714844-15 15 0 8.285157 6.714844 15 15 15h1.390625v145.78125c0 8.28125 6.71875 15 15 15h449.21875c8.285156 0 15-6.71875 15-15v-145.78125h1.390625c8.285156 0 15-6.714843 15-15 0-8.285156-6.714844-15-15-15zm-450.609375 160.78125v-130.78125h91.523437v130.78125zm121.523437-130.78125h176.171876v130.78125h-176.171876zm206.171876 130.78125v-130.78125h91.523437v130.78125zm0 0"/></svg>