<svg height="512pt" viewBox="0 -26 512.00046 512" width="512pt" xmlns="http://www.w3.org/2000/svg"><path d="m470.632812 242.773438h-11.773437v-91.710938h38.140625c4.597656 0 8.945312-2.109375 11.789062-5.726562 2.84375-3.613282 3.871094-8.332032 2.789063-12.800782l-22.933594-94.816406c-1.628906-6.730469-7.65625-11.472656-14.582031-11.472656h-60.410156c-6.925782 0-12.949219 4.742187-14.578125 11.472656l-22.9375 94.816406c-1.082031 4.46875-.050781 9.1875 2.792969 12.800782 2.84375 3.617187 7.1875 5.726562 11.789062 5.726562h38.140625v35.988281c-6.851563-4.21875-14.910156-6.660156-23.53125-6.660156h-298.660156c-24.8125 0-45 20.1875-45 45v17.382813h-20.300781c-22.808594 0-41.367188 18.558593-41.367188 41.367187v135.421875c0 22.8125 18.558594 41.371094 41.367188 41.371094h429.265624c22.808594 0 41.367188-18.558594 41.367188-41.371094v-135.421875c0-22.808594-18.558594-41.367187-41.367188-41.367187zm-429.265624 188.160156c-6.265626 0-11.367188-5.101563-11.367188-11.371094v-135.421875c0-6.269531 5.101562-11.367187 11.367188-11.367187h53.546874c6.269532 0 11.367188 5.097656 11.367188 11.367187v135.421875c0 6.269531-5.097656 11.371094-11.367188 11.371094zm65.300781-220.542969h298.664062c8.269531 0 15 6.730469 15 15v17.382813h-3.246093c-22.8125 0-41.367188 18.558593-41.367188 41.367187v52.710937h-239.4375v-52.710937c0-22.808594-18.558594-41.367187-41.367188-41.367187h-3.246093v-17.382813c0-8.269531 6.730469-15 15-15zm29.613281 209.171875v-52.710938h239.4375v52.710938c0 3.945312.566406 7.753906 1.601562 11.371094h-242.640624c1.035156-3.617188 1.601562-7.425782 1.601562-11.371094zm269.4375 0v-135.421875c0-6.269531 5.097656-11.367187 11.367188-11.367187h53.546874c6.265626 0 11.367188 5.097656 11.367188 11.367187v135.421875c0 6.269531-5.101562 11.371094-11.367188 11.371094h-53.546874c-6.269532 0-11.367188-5.101563-11.367188-11.371094zm56.539062-363.316406 15.679688 64.8125h-68.160156l15.679687-64.8125zm0 0"/><path d="m34.085938 131.320312h253.859374c8.285157 0 15-6.714843 15-15v-101.320312c0-8.285156-6.714843-15-15-15h-253.859374c-8.285157 0-15 6.714844-15 15v101.320312c0 8.285157 6.714843 15 15 15zm15-101.320312h223.859374v71.320312h-223.859374zm0 0"/></svg>